<?xml version="1.0" encoding="UTF-8" standalone="no"?>
<svg width="77px" height="76px" viewBox="0 0 77 76" version="1.1" xmlns="http://www.w3.org/2000/svg" xmlns:xlink="http://www.w3.org/1999/xlink">
    <!-- Generator: Sketch 45.2 (43514) - http://www.bohemiancoding.com/sketch -->
    <title>Slice 1</title>
    <desc>Created with Sketch.</desc>
    <defs>
        <rect id="path-1" x="0" y="0" width="76" height="76"></rect>
    </defs>
    <g id="Page-1" stroke="none" stroke-width="1" fill="none" fill-rule="evenodd">
        <g id="GLOBAL-/-Avatars-/-Company-/-XSM" transform="translate(1.000000, 0.000000)">
            <g id="Group">
                <g id="CONTENT-/-Companies-/-ShareThrough">
                    <mask id="mask-2" fill="white">
                        <use xlink:href="#path-1"></use>
                    </mask>
                    <use id="Mask" fill="#FFFFFF" xlink:href="#path-1"></use>
                    <g mask="url(#mask-2)">
                        <g transform="translate(15.000000, 12.000000)">
                            <rect id="Rectangle" fill="#FFFFFF" x="0" y="0" width="46" height="52"></rect>
                            <path d="M33.7979057,28.5885478 C33.8060546,29.6439653 33.8277849,30.6966697 33.7816079,31.749374 C33.773459,31.9962712 33.588751,32.3381287 33.3823126,32.4602207 C30.0467025,34.4136927 26.6975109,36.3454594 23.3374541,38.2609472 C23.1581786,38.3667603 22.8213581,38.3830392 22.6475152,38.2826525 C19.246714,36.3454594 15.8594943,34.3865612 12.4695583,32.430376 C12.4125161,32.395105 12.3744879,32.3299893 12.273985,32.2241762 C13.0589943,31.7683661 13.8114079,31.2989902 14.6018497,30.9055826 C14.7838415,30.8133353 15.1315272,30.9327142 15.3488308,31.0548062 C17.690277,32.3869655 20.020858,33.7408302 22.3541553,35.0892684 C22.5144167,35.1788026 22.682827,35.2520578 22.9626054,35.3931419 C22.9626054,34.3404375 22.9897684,33.371841 22.9381587,32.4059576 C22.9272936,32.2323157 22.6203522,32.0369685 22.4139138,31.9175896 C19.2086859,30.0617913 16.0061742,28.2059929 12.7873648,26.3800392 C12.301148,26.1060105 12.1028585,25.8048503 12.1191562,25.2323744 C12.1599006,23.5339391 12.1327377,21.8355037 12.2685524,20.0963711 C13.0019521,21.3607015 13.7136213,22.6358846 14.4769002,23.881223 C14.6860549,24.2230806 14.9929962,24.5540856 15.3325331,24.7548591 C17.671263,26.1385684 20.0398721,27.4761541 22.3840346,28.8544371 C22.7941951,29.0959079 23.1011364,29.1149 23.530311,28.8652897 C25.8907713,27.4761541 28.2783945,26.1304289 30.6442873,24.7440065 C31.0028383,24.5323803 31.2608863,24.5459461 31.5949906,24.7575722 C32.3039435,25.2106692 33.3089726,25.4738453 33.6783887,26.1087237 C34.0478048,26.7463152 33.7924731,27.7474696 33.7979057,28.5885478 M12.8145277,19.3909506 C16.0007416,17.5541443 19.1923881,15.7254775 22.3677368,13.866966 C22.8159255,13.6065031 23.1310157,13.6173557 23.576488,13.8778186 C26.6486176,15.6766407 29.7424774,17.442905 32.8254721,19.2200218 C33.0862364,19.3719585 33.3442845,19.5320347 33.7001191,19.746374 C33.1731579,20.0665263 32.714104,20.356834 32.244185,20.6281495 C29.3404658,22.3048796 26.4421792,23.9816098 23.5248784,25.6312083 C23.2695467,25.7750056 22.8186418,25.8482608 22.590473,25.7207424 C19.2249836,23.8215336 15.8812246,21.8816274 12.5347493,19.9471475 C12.4559768,19.903737 12.3907857,19.8359081 12.2658361,19.7382345 C12.4722746,19.6052899 12.6406848,19.4913374 12.8145277,19.3909506 M44.5924616,26.0327553 L44.5897453,26.0327553 C44.5897453,22.2126324 44.5843127,18.3925094 44.5978942,14.5750996 C44.5978942,13.8696791 44.3262647,13.3840243 43.7069494,13.0367404 C42.1152006,12.1413991 40.5397496,11.2134999 38.9561497,10.3018796 C33.9418693,7.41508217 28.9248727,4.53099785 23.9105923,1.63877407 C23.3130074,1.29420332 22.7235715,1.24536652 22.120554,1.59265043 C15.4601989,5.42633917 8.79984387,9.26002792 2.13677251,13.0910035 C1.59894613,13.4003032 1.33818182,13.8452607 1.33818182,14.4638602 C1.34089811,22.1475166 1.34089811,29.8338862 1.33818182,37.5175426 C1.33818182,38.1578473 1.59622983,38.6245101 2.16393546,38.9500887 C8.76453204,42.7457933 15.3651286,46.5414979 21.9602926,50.3507682 C22.663813,50.7550284 23.299426,50.7360363 24.00023,50.3344893 C30.5111889,46.5713426 37.0275803,42.8163354 43.5575532,39.0830334 C44.2963854,38.6597811 44.6087593,38.1252895 44.6060431,37.2760718 C44.5788801,33.5264909 44.5924616,29.7796231 44.5924616,26.0327553" id="Fill-1" fill="#86E3CD"></path>
                        </g>
                    </g>
                </g>
            </g>
        </g>
    </g>
</svg>