<?xml version="1.0" encoding="UTF-8" standalone="no"?>
<svg width="178px" height="50px" viewBox="0 0 178 50" version="1.1" xmlns="http://www.w3.org/2000/svg" xmlns:xlink="http://www.w3.org/1999/xlink">
    <!-- Generator: Sketch 45.2 (43514) - http://www.bohemiancoding.com/sketch -->
    <title>Slice 1</title>
    <desc>Created with Sketch.</desc>
    <defs>
        <polygon id="path-1" points="0 0.0505043764 0 27.875 14.3166705 27.875 28.633341 27.875 28.633341 0.0505043764 14.3166705 0.0505043764"></polygon>
    </defs>
    <g id="Page-1" stroke="none" stroke-width="1" fill="none" fill-rule="evenodd">
        <g id="Logo">
            <g id="CONTENT-/-Logos-/-Industry-Index">
                <g id="Page-1" transform="translate(8.875727, 11.062500)">
                    <path d="M24.5690407,22.625 C24.5690407,23.5914866 23.7627508,24.375 22.7681686,24.375 C21.7735864,24.375 20.9672965,23.5914866 20.9672965,22.625 C20.9672965,21.6585134 21.7735864,20.875 22.7681686,20.875 C23.7627508,20.875 24.5690407,21.6585134 24.5690407,22.625" id="Fill-1" fill="#39D299"></path>
                    <path d="M90.9267219,20.117105 L90.9267219,10.1000833 C92.578373,9.43041242 94.3486908,9.08796506 96.2381097,9.07274116 C96.3106627,9.07213943 96.3702443,9.12966529 96.3702443,9.20000811 L96.3702443,10.4324817 C96.3702443,10.4977699 96.3155037,10.5524676 96.2481641,10.5545737 C95.0601322,10.5924228 93.8277244,10.7798632 92.5510027,11.1164738 L92.5510027,20.117105 L90.9267219,20.117105 Z M84.6019505,5.58207665 L85.8867405,5.58207665 C85.9805194,5.58207665 86.0564859,5.65572901 86.0564859,5.74665116 L86.0564859,9.24243042 L88.855455,9.24243042 C88.9098232,9.24243042 88.9538267,9.2851536 88.9538267,9.33780541 L88.9538267,10.5835171 C88.9538267,10.6362291 88.9098232,10.6788921 88.855455,10.6788921 L86.0564859,10.6788921 L86.0564859,17.3079655 C86.0564859,17.861321 86.1754629,18.2495002 86.4134169,18.4733456 C86.6508743,18.6963486 87.0696832,18.8083315 87.6697815,18.8083315 C88.0784739,18.8083315 88.4612235,18.7414185 88.8181544,18.6075325 C88.8834459,18.5830419 88.9538887,18.6274499 88.9538887,18.6953256 L88.9538267,19.9605937 C88.9538267,20.0032567 88.9258978,20.0420686 88.8843148,20.0562094 C88.431681,20.2103137 87.9794195,20.2873358 87.527158,20.2873358 L87.4722313,20.2873358 C87.1719649,20.2873358 86.8796428,20.2554439 86.5942718,20.1915998 C86.3089008,20.1277557 85.9866638,20.0017524 85.6284916,19.8140713 C85.2698228,19.6259087 84.9809763,19.3101182 84.7614554,18.8666396 C84.5419345,18.4235219 84.4322051,17.8757626 84.4322051,17.2228802 L84.4322051,5.74665116 C84.4322051,5.65572901 84.5082337,5.58207665 84.6019505,5.58207665 L84.6019505,5.58207665 Z M74.7778162,12.1941209 C74.7778162,11.3262988 75.1053287,10.5852622 75.7602917,9.97155267 C76.4148202,9.35778301 77.4152943,9.05089818 78.761714,9.05089818 C79.7040961,9.05089818 80.6464161,9.26409288 81.5892326,9.69012123 C81.6182786,9.70317888 81.6371461,9.73182146 81.6371461,9.76287099 L81.6371461,11.1466207 C81.6371461,11.2045678 81.5727856,11.2396489 81.5208379,11.2109462 C80.6996671,10.7569371 79.838527,10.5299627 78.9372935,10.5299627 C77.2471626,10.5299627 76.4020971,11.0849429 76.4020971,12.1941209 C76.4020971,12.5712282 76.6066605,12.8755858 77.0166563,13.106652 C77.4262797,13.3373572 77.9275718,13.5297318 78.5202224,13.6825124 C79.112873,13.835353 79.7055235,14.0183406 80.2981741,14.2320167 C80.8908247,14.4452716 81.3939167,14.8061922 81.8070157,15.3147786 C82.2205491,15.8234252 82.4272848,16.4720955 82.4272848,17.2615717 C82.4272848,18.2064761 82.0634027,18.9466703 81.3355143,19.4829365 C80.6072536,20.0192027 79.5993318,20.2873358 78.3117489,20.2873358 C77.0851131,20.2873358 75.9690135,20.0221512 74.9634501,19.4909396 C74.9370108,19.4769793 74.9205017,19.4497809 74.9205017,19.4205366 L74.9205017,17.9382829 C74.9205017,17.8796137 74.9861035,17.8444724 75.0382374,17.8742583 C76.0768809,18.4685919 77.1460601,18.7657286 78.2458989,18.7657286 C79.9504907,18.7657286 80.8030039,18.264363 80.8030039,17.2615717 C80.8030039,16.7210332 80.598006,16.2980135 80.1884447,15.9919711 C79.7783868,15.6863499 79.2775292,15.4569686 78.6848786,15.3041881 C78.092228,15.1509262 77.4995775,14.9841252 76.9069269,14.8027623 C76.3142763,14.6214596 75.8111843,14.3154172 75.3976509,13.8851165 C74.9845519,13.4548158 74.7778162,12.8912911 74.7778162,12.1941209 L74.7778162,12.1941209 Z M63.6584652,15.5416327 L63.6584652,9.40700493 C63.6584652,9.31608278 63.7344317,9.24243042 63.8282106,9.24243042 L65.1130627,9.24243042 C65.2067795,9.24243042 65.282746,9.31608278 65.282746,9.40700493 L65.282746,15.6127578 C65.282746,16.7168211 65.5312509,17.5254927 66.0277641,18.0387726 C66.5242152,18.5516915 67.3021273,18.8083315 68.3610038,18.8083315 C69.4053572,18.8083315 70.1797937,18.5516915 70.6837546,18.0387726 C71.1877155,17.5254927 71.4396959,16.7168211 71.4396959,15.6127578 L71.4396959,9.40700493 C71.4396959,9.31608278 71.5156624,9.24243042 71.6093793,9.24243042 L72.8942313,9.24243042 C72.9880103,9.24243042 73.0639768,9.31608278 73.0639768,9.40700493 L73.0639768,15.5416327 C73.0639768,17.0526494 72.6543534,18.2213992 71.8356652,19.0479423 C71.0164805,19.8740642 69.8584255,20.2873358 68.3610038,20.2873358 C66.8640165,20.2873358 65.7059615,19.8740642 64.8867768,19.0479423 C64.0676541,18.2213992 63.6584652,17.0526494 63.6584652,15.5416327 L63.6584652,15.5416327 Z M53.6977897,14.5414288 C53.6977897,15.4565474 53.8000715,16.2226763 54.0046349,16.8398157 C54.208826,17.4569551 54.4901628,17.9004939 54.8479626,18.1698907 C55.2061969,18.4397086 55.5494737,18.6205901 55.8778551,18.7125352 C56.2066709,18.8049016 56.5829038,18.8508741 57.0064916,18.8508741 C58.9929789,18.8508741 59.9864397,18.2124333 59.9864397,16.9355517 L59.9864397,11.0513661 C59.0732899,10.6895428 58.1456791,10.5086613 57.2036074,10.5086613 C55.9765991,10.5086613 55.0854821,10.8278817 54.5301321,11.4663225 C53.9752786,12.1047633 53.6977897,13.1300595 53.6977897,14.5414288 L53.6977897,14.5414288 Z M52.0735089,14.5414288 C52.0735089,13.4633605 52.2236421,12.5461359 52.5239084,11.7910788 C52.8241748,11.0351794 53.2399425,10.4699096 53.7706531,10.0937049 C54.3014257,9.71786121 54.8418182,9.45357922 55.3910239,9.30115975 C55.9401675,9.14837925 56.5442379,9.0721996 57.2036074,9.0721996 C58.1896205,9.0721996 59.1172313,9.21053847 59.9864397,9.48715603 L59.9864397,5.74665116 C59.9864397,5.65572901 60.0624063,5.58207665 60.1561231,5.58207665 L61.4409752,5.58207665 C61.534692,5.58207665 61.6107206,5.65572901 61.6107206,5.74665116 L61.6107206,16.8717077 C61.6107206,17.1628872 61.5667792,17.4608062 61.4790205,17.7655248 C61.3907653,18.0707247 61.2077381,18.4341727 60.9293804,18.8564101 C60.6510847,19.2782263 60.1747424,19.622539 59.5009119,19.8881448 C58.8270194,20.1545931 57.9951115,20.2873358 57.0064916,20.2873358 C56.5890482,20.2873358 56.1802937,20.2515928 55.7812833,20.1809491 C55.3822108,20.1103054 54.9498098,19.9506651 54.4848873,19.7021486 C54.0200268,19.4539931 53.6187821,19.1313428 53.2820841,18.7338367 C52.9448895,18.3367518 52.6591462,17.7778603 52.4251644,17.0577039 C52.1907481,16.3380289 52.0735089,15.49909 52.0735089,14.5414288 L52.0735089,14.5414288 Z M40.9581299,19.9525305 L40.9581299,10.1149461 C42.4305398,9.40586164 44.0122447,9.05089818 45.7045479,9.05089818 C47.1150798,9.05089818 48.209457,9.39864082 48.9878035,10.0937049 C49.7657155,10.78913 50.155106,11.7680926 50.155106,13.0304723 L50.155106,19.9525305 C50.155106,20.0434526 50.0791395,20.117105 49.9853606,20.117105 L48.7005706,20.117105 C48.6067917,20.117105 48.5308251,20.0434526 48.5308251,19.9525305 L48.5308251,13.0304723 C48.5308251,12.7257538 48.4978691,12.4541908 48.432019,12.216686 C48.3661689,11.97876 48.2384409,11.7255499 48.0488349,11.4556718 C47.8587325,11.186275 47.5523217,10.9785561 47.1286719,10.8334177 C46.705022,10.687858 46.1720771,10.615048 45.5289684,10.615048 C44.5868967,10.615048 43.6048556,10.7606679 42.5824108,11.0513661 L42.5824108,19.9525305 C42.5824108,20.0434526 42.5064443,20.117105 42.4127274,20.117105 L41.1278754,20.117105 C41.0340965,20.117105 40.9581299,20.0434526 40.9581299,19.9525305 L40.9581299,19.9525305 Z M37.0875613,20.117105 L38.3724133,20.117105 C38.4661302,20.117105 38.5421588,20.0434526 38.5421588,19.9525305 L38.5421588,9.40700493 C38.5421588,9.31608278 38.4661302,9.24243042 38.3724133,9.24243042 L37.0875613,9.24243042 C36.9938444,9.24243042 36.9178779,9.31608278 36.9178779,9.40700493 L36.9178779,19.9525305 C36.9178779,20.0434526 36.9938444,20.117105 37.0875613,20.117105 L37.0875613,20.117105 Z M98.840894,22.3331143 C98.840894,22.3331143 99.6476038,22.6551027 100.414841,22.1355046 C101.252024,21.5241419 101.732463,20.2552032 101.824504,19.9943511 L101.840765,19.9468742 L97.7871689,9.45947622 C97.7465168,9.35447347 97.8266417,9.24243042 97.9423292,9.24243042 L99.320774,9.24243042 C99.3906582,9.24243042 99.4530327,9.28497308 99.4767412,9.34875699 L102.630965,17.8506703 L105.828821,9.34809508 C105.852715,9.28461204 105.914904,9.24243042 105.98454,9.24243042 L107.36404,9.24243042 C107.479603,9.24243042 107.559666,9.35423278 107.519324,9.45923553 L103.191529,20.7360496 C102.39388,22.8284024 101.216027,23.875 99.6575961,23.875 C99.3203396,23.875 98.9897238,23.8185573 98.6656248,23.7056718 C98.6286967,23.6927947 98.6039951,23.6580144 98.6039951,23.6199245 L98.6039951,22.374273 C98.6039951,22.3134376 98.6668041,22.2736027 98.7256409,22.2949042 C98.7551213,22.3055549 98.840894,22.3331143 98.840894,22.3331143 L98.840894,22.3331143 Z M148.263197,20.0416474 L152.191361,14.6278982 L148.528087,9.55118063 C148.45752,9.45333852 148.529701,9.31903128 148.652774,9.31903128 L151.538695,9.31903128 C151.588284,9.31903128 151.634832,9.34249894 151.663258,9.38185241 L153.825448,12.3721743 L156.043869,9.31903128 L158.998123,9.31903128 L155.297176,14.3866024 L159.220871,19.8111228 C159.291128,19.9081826 159.219506,20.0416474 159.097239,20.0416474 L156.208898,20.0416474 C156.159681,20.0416474 156.113567,20.0184205 156.085328,19.9793679 L153.652289,16.6213257 L151.152532,20.0416474 L148.263197,20.0416474 Z M140.764607,13.8724801 L145.223047,13.8724801 C145.150866,13.13716 144.925449,12.515989 144.546672,12.0093281 C144.167956,11.5026673 143.64668,11.2495174 142.983028,11.2495174 C142.319252,11.2495174 141.801637,11.4558523 141.430121,11.8689434 C141.058605,12.2816734 140.836725,12.9496593 140.764607,13.8724801 L140.764607,13.8724801 Z M138.102489,14.7957822 C138.102489,13.0751211 138.497527,11.7006983 139.28748,10.6724536 C140.077432,9.64426903 141.33088,9.13020685 143.047947,9.13020685 C144.671173,9.13020685 145.89936,9.63030878 146.732633,10.6305126 C147.565907,11.6307165 147.982543,12.8617459 147.982543,14.3236008 C147.982543,14.9251552 147.968082,15.3692958 147.938788,15.6560827 L140.764607,15.6560827 C140.836725,16.5863649 141.123524,17.2088597 141.624878,17.5236273 C142.126294,17.8383949 142.777409,17.9957486 143.578161,17.9957486 C144.876729,17.9957486 146.132038,17.719492 147.344027,17.1669188 L147.344027,19.2442884 C146.117578,19.8877838 144.728892,20.2095315 143.177785,20.2095315 C142.68723,20.2095315 142.225535,20.1710806 141.792637,20.0941187 C141.359802,20.0171568 140.91114,19.8563131 140.446714,19.6115273 C139.982723,19.3666813 139.583278,19.0554038 139.24869,18.677755 C138.914164,18.3000459 138.63953,17.7771984 138.424416,17.1092124 C138.209798,16.4412265 138.102489,15.6701031 138.102489,14.7957822 L138.102489,14.7957822 Z M129.466076,14.4175918 C129.466076,15.6805733 129.635636,16.5925026 129.974692,17.153801 C130.313749,17.7150994 130.905344,17.9957486 131.749416,17.9957486 C133.091305,17.9957486 133.762219,17.6097356 133.762219,16.838191 L133.762219,11.344411 C133.242804,11.2324883 132.658408,11.1725555 132.009155,11.1655754 C131.179481,11.1655754 130.548227,11.4060286 130.115392,11.8864538 C129.682494,12.3673604 129.466076,13.2106318 129.466076,14.4175918 L129.466076,14.4175918 Z M126.803959,14.5544263 C126.803959,12.8093348 127.244056,11.4724602 128.124187,10.543923 C129.004381,9.61544592 130.27049,9.15114723 131.922575,9.15114723 C132.514109,9.15114723 133.127365,9.20710858 133.762219,9.31903128 L133.762219,5.643935 C133.762219,5.56444581 133.82869,5.5 133.910614,5.5 L136.275879,5.5 C136.357866,5.5 136.424274,5.56444581 136.424274,5.643935 L136.424274,16.5950901 C136.424274,17.5830787 136.040097,18.4324878 135.271805,19.1433173 C134.503513,19.8541468 133.329384,20.2095315 131.749416,20.2095315 C131.3815,20.2095315 131.015322,20.1815508 130.651005,20.1255895 C130.286689,20.0692069 129.861053,19.9223234 129.374097,19.6840363 C128.887142,19.4458095 128.463306,19.1376008 128.102589,18.7590494 C127.741872,18.3804377 127.435275,17.825277 127.182798,17.0930258 C126.930259,16.3607745 126.803959,15.5144343 126.803959,14.5544263 L126.803959,14.5544263 Z M114.931956,19.8977726 L114.931956,10.3262754 C116.555182,9.54287669 118.246926,9.15114723 120.00719,9.15114723 C121.550601,9.15114723 122.75719,9.54113165 123.626523,10.3209802 C124.49629,11.1008888 124.930987,12.1937599 124.930987,13.5997136 L124.930987,19.8977726 C124.930987,19.9772618 124.864516,20.0416474 124.782592,20.0416474 L122.417327,20.0416474 C122.33534,20.0416474 122.268931,19.9772618 122.268931,19.8977726 L122.268931,13.3793583 C122.268931,13.0925714 122.241871,12.8530207 122.187751,12.660646 C122.133632,12.4683315 122.025392,12.2672317 121.863094,12.0574067 C121.700796,11.8475818 121.435658,11.6901679 121.067742,11.5852855 C120.699763,11.4803429 120.227269,11.4278716 119.650073,11.4278716 C119.000819,11.4278716 118.315445,11.4908131 117.594011,11.6167562 L117.594011,19.8977726 C117.594011,19.9772618 117.527603,20.0416474 117.445616,20.0416474 L115.080351,20.0416474 C114.998427,20.0416474 114.931956,19.9772618 114.931956,19.8977726 L114.931956,19.8977726 Z M109.606852,19.8977726 L109.606852,9.46290611 C109.606852,9.38347709 109.673322,9.31903128 109.755309,9.31903128 L112.120512,9.31903128 C112.202499,9.31903128 112.268969,9.38347709 112.268969,9.46290611 L112.268969,19.8977726 C112.268969,19.9772618 112.202499,20.0416474 112.120512,20.0416474 L109.755309,20.0416474 C109.673322,20.0416474 109.606852,19.9772618 109.606852,19.8977726 L109.606852,19.8977726 Z" id="Fill-3" fill="#606FFF"></path>
                    <g id="Group-7">
                        <mask id="mask-2" fill="white">
                            <use xlink:href="#path-1"></use>
                        </mask>
                        <g id="Clip-6"></g>
                        <path d="M14.3166673,0.0505043764 C6.40981316,0.0505043764 -6.27687523e-06,6.27925547 -6.27687523e-06,13.9627522 C-6.27687523e-06,21.6461879 6.40968763,27.874939 14.316479,27.875 L14.3166673,27.875 C15.3050241,27.875 16.1062672,27.0963909 16.1062672,26.1359538 L16.1062672,26.1358318 L16.1062672,15.7017984 C16.1062672,14.7413613 15.3050241,13.9627522 14.3166673,13.9627522 C13.3283106,13.9627522 12.5270674,14.7413613 12.5270674,15.7017984 L12.5270674,24.2502131 C10.3398275,23.8954625 8.32382072,22.8948293 6.72434738,21.3405388 C4.69641453,19.3698922 3.57957013,16.7497032 3.57957013,13.9627522 C3.57957013,11.1758011 4.69641453,8.55561214 6.72434738,6.58490454 C8.752343,4.61425793 11.4487003,3.52890181 14.3166673,3.52890181 C17.1846344,3.52890181 19.8809917,4.61425793 21.9089873,6.58490454 C23.9369829,8.55561214 25.0538273,11.1758011 25.0538273,13.9627522 L25.0542039,13.9627522 C25.0542039,14.9231893 25.8553843,15.7017984 26.8437411,15.7017984 C27.8321606,15.7017984 28.633341,14.9231893 28.633341,13.9627522 C28.633341,6.27925547 22.2235843,0.0505043764 14.3166673,0.0505043764 M14.3166673,7.00662828 C15.3050241,7.00662828 16.1062672,7.78523742 16.1062672,8.74567451 C16.1062672,9.7061116 15.3050241,10.4846597 14.3166673,10.4846597 C13.3283106,10.4846597 12.5270674,9.7061116 12.5270674,8.74567451 C12.5270674,7.78523742 13.3283106,7.00662828 14.3166673,7.00662828" id="Fill-5" fill="#606FFF" mask="url(#mask-2)"></path>
                    </g>
                </g>
            </g>
        </g>
    </g>
</svg>