<?xml version="1.0" encoding="UTF-8" standalone="no"?>
<svg width="174px" height="53px" viewBox="0 0 174 53" version="1.1" xmlns="http://www.w3.org/2000/svg" xmlns:xlink="http://www.w3.org/1999/xlink">
    <!-- Generator: Sketch 45.2 (43514) - http://www.bohemiancoding.com/sketch -->
    <title>Slice 1</title>
    <desc>Created with Sketch.</desc>
    <defs>
        <polygon id="path-1" points="159 35 166 39.9 159 44.8"></polygon>
    </defs>
    <g id="Page-1" stroke="none" stroke-width="1" fill="none" fill-rule="evenodd">
        <g id="Group-2" transform="translate(1.000000, 1.000000)">
            <path d="M161,0 C167.075,0 172,4.925 172,11 C172,17.075 167.075,22 161,22 C154.925,22 150,17.075 150,11 C150,4.925 154.925,0 161,0 L161,0 Z" id="Stroke-239-Copy-5" stroke="#414042" stroke-width="2" fill="#414042" stroke-linecap="round" stroke-linejoin="round"></path>
            <polygon id="Stroke-351" stroke="#FFFFFF" stroke-width="2" stroke-linecap="round" stroke-linejoin="round" points="158 15.8 158 6 165 10.9"></polygon>
            <path d="M131,29 C137.075,29 142,33.925 142,40 C142,46.075 137.075,51 131,51 C124.925,51 120,46.075 120,40 C120,33.925 124.925,29 131,29 L131,29 Z" id="Stroke-239" stroke="#A7A9AC" stroke-width="2" stroke-linecap="round" stroke-linejoin="round"></path>
            <path d="M101,29 C107.075,29 112,33.925 112,40 C112,46.075 107.075,51 101,51 C94.925,51 90,46.075 90,40 C90,33.925 94.925,29 101,29 L101,29 Z" id="Stroke-239-Copy" stroke="#A7A9AC" stroke-width="2" stroke-linecap="round" stroke-linejoin="round"></path>
            <path d="M71,29 C77.075,29 82,33.925 82,40 C82,46.075 77.075,51 71,51 C64.925,51 60,46.075 60,40 C60,33.925 64.925,29 71,29 L71,29 Z" id="Stroke-239-Copy-2" stroke="#A7A9AC" stroke-width="2" stroke-linecap="round" stroke-linejoin="round"></path>
            <path d="M41,29 C47.075,29 52,33.925 52,40 C52,46.075 47.075,51 41,51 C34.925,51 30,46.075 30,40 C30,33.925 34.925,29 41,29 L41,29 Z" id="Stroke-239-Copy-3" stroke="#A7A9AC" stroke-width="2" stroke-linecap="round" stroke-linejoin="round"></path>
            <path d="M11,29 C17.075,29 22,33.925 22,40 C22,46.075 17.075,51 11,51 C4.925,51 0,46.075 0,40 C0,33.925 4.925,29 11,29 L11,29 Z" id="Stroke-239-Copy-4" stroke="#A7A9AC" stroke-width="2" stroke-linecap="round" stroke-linejoin="round"></path>
            <g id="Group-15-Copy-2" transform="translate(5.000000, 34.000000)" stroke="#A7A9AC" stroke-width="0.25" fill="#A7A9AC" fill-rule="nonzero">
                <path d="M3.47941176,12 C2.56176471,12 1.72058824,11.625 1.03235294,11.025 C-0.344117647,9.675 -0.344117647,7.575 1.03235294,6.225 L1.56764706,5.7 L2.63823529,6.75 L2.10294118,7.275 C1.33823529,8.025 1.33823529,9.225 2.10294118,9.975 C2.86764706,10.725 4.09117647,10.725 4.85588235,9.975 L7.15,7.725 C7.91470588,6.975 7.91470588,5.775 7.15,5.025 L6.61470588,4.5 L7.68529412,3.45 L8.22058824,3.975 C9.59705882,5.325 9.59705882,7.425 8.22058824,8.775 L5.92647059,11.025 C5.31470588,11.625 4.39705882,12 3.47941176,12" id="Fill-295"></path>
                <path d="M4.62647059,8.55 L4.09117647,8.025 C2.71470588,6.675 2.71470588,4.575 4.09117647,3.225 L6.38529412,0.975 C7.07352941,0.3 7.91470588,0 8.83235294,0 C9.75,0 10.5911765,0.375 11.2794118,0.975 C12.6558824,2.325 12.6558824,4.425 11.2794118,5.775 L10.7441176,6.3 L9.67352941,5.25 L10.2088235,4.725 C10.9735294,3.975 10.9735294,2.775 10.2088235,2.025 C9.44411765,1.275 8.22058824,1.275 7.45588235,2.025 L5.16176471,4.275 C4.39705882,5.025 4.39705882,6.225 5.16176471,6.975 L5.69705882,7.5 L4.62647059,8.55 Z" id="Fill-296"></path>
            </g>
            <path d="M39.1161,45.5 L39.1,40.46875 L38,40.46875 L38,38.3125 L39.1,38.3125 L39.1,36.875 C39.1,34.9350938 40.2704,34 41.956,34 C42.7631,34 43.4568,34.0618125 43.6591,34.089125 L43.6591,36.1167188 L42.4901,36.1174375 C41.5731,36.1174375 41.396,36.5645 41.396,37.2207188 L41.396,38.3125 L44,38.3125 L43.3,40.46875 L41.396,40.46875 L41.396,45.5 L39.1161,45.5 Z" id="Fill-32-Copy-3" fill="#A7A9AC" fill-rule="nonzero"></path>
            <path d="M73.5498523,43.3003153 C73.3436134,43.3690616 72.9311355,43.5065542 72.6561503,43.5065542 C71.7624483,43.5065542 71.6249557,42.8190911 71.6249557,42.0628817 L71.6249557,39.3130294 L74.0310764,39.3130294 L73.6873449,37.2506402 L71.6249557,37.2506402 L71.6249557,34.5007879 L69.5625665,34.5007879 C69.5625665,34.5007879 69.5625665,36.6319235 67.5001772,37.2506402 L67.5001772,39.3130294 L68.8751034,39.3130294 L68.8751034,42.7503448 C68.8751034,43.9877783 69.7688054,45.5689434 72.1749261,45.5001971 C72.9998818,45.5001971 73.8935838,45.1564656 74.0998228,44.8814803 L73.5498523,43.3003153 Z" id="Fill-73-Copy-2" fill="#A7A9AC" fill-rule="nonzero"></path>
            <g id="Group-16-Copy-2" transform="translate(96.000000, 33.000000)" fill-rule="nonzero" fill="#A7A9AC">
                <path d="M11.6,11.6 L9.2,11.6 L9.2,7.9 C9.2,7 9.2,5.9 8,5.9 C6.8,5.9 6.6,6.9 6.6,7.9 L6.6,11.7 L4.2,11.7 L4.2,4 L6.5,4 L6.5,5 C6.8,4.4 7.6,3.8 8.7,3.8 C11.1,3.8 11.5,5.4 11.5,7.4 L11.5,11.6 L11.6,11.6 Z" id="Path"></path>
                <path d="M0.2,1.6 C0.2,0.8 0.8,0.2 1.6,0.2 C2.4,0.2 3,0.8 3,1.6 C2.9,2.3 2.3,3 1.6,3 C0.8,3 0.2,2.3 0.2,1.6 Z" id="Path"></path>
                <polygon id="Path" points="2.7 11.6 0.4 11.6 0.4 4 2.8 4 2.8 11.6"></polygon>
            </g>
            <path d="M135.517388,37.4428571 L131.069553,39.8921429 L126.621717,37.4428571 L126.621717,36.4285714 L135.517388,36.4285714 L135.517388,37.4428571 Z M135.517388,43.5714286 L126.621717,43.5714286 L126.621717,39.0878571 L130.701865,41.3342857 C130.930187,41.46 131.209659,41.46 131.43724,41.3342857 L135.517388,39.0878571 L135.517388,43.5714286 Z M136.258694,35 L125.880411,35 C125.47121,35 125.139105,35.3192857 125.139105,35.7142857 L125.139105,44.2857143 C125.139105,44.6807143 125.47121,45 125.880411,45 L136.258694,45 C136.667895,45 137,44.6807143 137,44.2857143 L137,35.7142857 C137,35.3192857 136.667895,35 136.258694,35 L136.258694,35 Z" id="Fill-123" stroke="#A7A9AC" stroke-width="0.25" fill="#A7A9AC" fill-rule="nonzero"></path>
            <path d="M131,0 C137.075,0 142,4.925 142,11 C142,17.075 137.075,22 131,22 C124.925,22 120,17.075 120,11 C120,4.925 124.925,0 131,0 L131,0 Z" id="Stroke-239" stroke="#414042" stroke-width="2" fill="#414042" fill-rule="nonzero" stroke-linecap="round" stroke-linejoin="round"></path>
            <path d="M101,0 C107.075,0 112,4.925 112,11 C112,17.075 107.075,22 101,22 C94.925,22 90,17.075 90,11 C90,4.925 94.925,0 101,0 L101,0 Z" id="Stroke-239-Copy" stroke="#414042" stroke-width="2" fill="#414042" fill-rule="nonzero" stroke-linecap="round" stroke-linejoin="round"></path>
            <path d="M71,0 C77.075,0 82,4.925 82,11 C82,17.075 77.075,22 71,22 C64.925,22 60,17.075 60,11 C60,4.925 64.925,0 71,0 L71,0 Z" id="Stroke-239-Copy-2" stroke="#414042" stroke-width="2" fill="#414042" fill-rule="nonzero" stroke-linecap="round" stroke-linejoin="round"></path>
            <path d="M41,0 C47.075,0 52,4.925 52,11 C52,17.075 47.075,22 41,22 C34.925,22 30,17.075 30,11 C30,4.925 34.925,0 41,0 L41,0 Z" id="Stroke-239-Copy-3" stroke="#414042" stroke-width="2" fill="#414042" fill-rule="nonzero" stroke-linecap="round" stroke-linejoin="round"></path>
            <path d="M11,0 C17.075,0 22,4.925 22,11 C22,17.075 17.075,22 11,22 C4.925,22 0,17.075 0,11 C0,4.925 4.925,0 11,0 L11,0 Z" id="Stroke-239-Copy-4" stroke="#414042" stroke-width="2" fill="#414042" fill-rule="nonzero" stroke-linecap="round" stroke-linejoin="round"></path>
            <g id="Group-15-Copy-2" transform="translate(4.000000, 4.000000)" fill-rule="nonzero" fill="#FFFFFF">
                <path d="M4.47941176,13.125 C3.56619025,13.125 2.69240717,12.7662644 1.94482686,12.1142423 C0.518391047,10.7152379 0.518391047,8.53476207 1.94482686,7.13575772 L2.48012098,6.61075772 L2.65517314,6.61075772 L3.72576138,7.66075772 L3.72576138,7.83924228 L3.19046726,8.36424228 C2.4757266,9.06523793 2.4757266,10.1847621 3.19046726,10.8857577 C3.90656134,11.5880808 5.05226219,11.5880808 5.76835627,10.8857577 L8.06247392,8.63575772 C8.77721458,7.93476207 8.77721458,6.81523793 8.06247392,6.11424228 L7.5271798,5.58924228 L7.5271798,5.41075772 L8.59776803,4.36075772 L8.7728202,4.36075772 L9.30811432,4.88575772 C10.7345501,6.28476207 10.7345501,8.46523793 9.30811432,9.86424228 L7.01399667,12.1142423 C6.37277675,12.7431311 5.42101623,13.125 4.47941176,13.125 Z M5.5389445,9.63924228 L5.00365039,9.11424228 C3.57721458,7.71523793 3.57721458,5.53476207 5.00365039,4.13575772 L7.29776803,1.88575772 C7.9879124,1.20888536 8.84900544,0.875 9.83235294,0.875 C10.7455745,0.875 11.6193575,1.23373563 12.3669378,1.88575772 C13.7933737,3.28476207 13.7933737,5.46523793 12.3669378,6.86424228 L11.8316437,7.38924228 L11.6565916,7.38924228 L10.5860033,6.33924228 L10.5860033,6.16075772 L11.1212974,5.63575772 C11.8360381,4.93476207 11.8360381,3.81523793 11.1212974,3.11424228 C10.4052034,2.41191924 9.25950252,2.41191924 8.54340844,3.11424228 L6.24929079,5.36424228 C5.53455013,6.06523793 5.53455013,7.18476207 6.24929079,7.88575772 L6.78458491,8.41075772 L6.78458491,8.58924228 L5.71399667,9.63924228 L5.5389445,9.63924228 Z" id="Combined-Shape"></path>
            </g>
            <path d="M39.1161,16.5 L39.1,11.46875 L38,11.46875 L38,9.3125 L39.1,9.3125 L39.1,7.875 C39.1,5.93509375 40.2704,5 41.956,5 C42.7631,5 43.4568,5.0618125 43.6591,5.089125 L43.6591,7.11671875 L42.4901,7.1174375 C41.5731,7.1174375 41.396,7.5645 41.396,8.22071875 L41.396,9.3125 L44,9.3125 L43.3,11.46875 L41.396,11.46875 L41.396,16.5 L39.1161,16.5 Z" id="Fill-32-Copy-3" fill="#FFFFFF" fill-rule="nonzero"></path>
            <path d="M73.5498523,14.3003153 C73.3436134,14.3690616 72.9311355,14.5065542 72.6561503,14.5065542 C71.7624483,14.5065542 71.6249557,13.8190911 71.6249557,13.0628817 L71.6249557,10.3130294 L74.0310764,10.3130294 L73.6873449,8.25064022 L71.6249557,8.25064022 L71.6249557,5.50078793 L69.5625665,5.50078793 C69.5625665,5.50078793 69.5625665,7.63192346 67.5001772,8.25064022 L67.5001772,10.3130294 L68.8751034,10.3130294 L68.8751034,13.7503448 C68.8751034,14.9877783 69.7688054,16.5689434 72.1749261,16.5001971 C72.9998818,16.5001971 73.8935838,16.1564656 74.0998228,15.8814803 L73.5498523,14.3003153 Z" id="Fill-73-Copy-2" fill="#FFFFFF" fill-rule="nonzero"></path>
            <g id="Group-16-Copy-2" transform="translate(96.000000, 4.000000)" fill-rule="nonzero" fill="#FFFFFF">
                <path d="M11.6,11.6 L9.2,11.6 L9.2,7.9 C9.2,7 9.2,5.9 8,5.9 C6.8,5.9 6.6,6.9 6.6,7.9 L6.6,11.7 L4.2,11.7 L4.2,4 L6.5,4 L6.5,5 C6.8,4.4 7.6,3.8 8.7,3.8 C11.1,3.8 11.5,5.4 11.5,7.4 L11.5,11.6 L11.6,11.6 Z" id="Path"></path>
                <path d="M1.6,3 C0.8,3 0.2,2.3 0.2,1.6 C0.2,0.8 0.8,0.2 1.6,0.2 C2.4,0.2 3,0.8 3,1.6 C2.9,2.3 2.3,3 1.6,3 L1.6,3 Z" id="Path"></path>
                <polygon id="Path" points="2.7 11.6 0.4 11.6 0.4 4 2.8 4 2.8 11.6"></polygon>
            </g>
            <path d="M136.258694,5.875 C136.736151,5.875 137.125,6.24941686 137.125,6.71428571 L137.125,15.2857143 C137.125,15.7505831 136.736151,16.125 136.258694,16.125 L125.880411,16.125 C125.402954,16.125 125.014105,15.7505831 125.014105,15.2857143 L125.014105,6.71428571 C125.014105,6.24941686 125.402954,5.875 125.880411,5.875 L136.258694,5.875 Z M135.577684,8.55235318 L135.642388,8.44285714 L135.642388,7.42857143 L135.517388,7.30357143 L126.621717,7.30357143 L126.496717,7.42857143 L126.496717,8.44285714 L126.561421,8.55235318 L131.009257,11.0016389 L131.129849,11.0016389 L135.577684,8.55235318 Z M135.517388,14.6964286 L135.642388,14.5714286 L135.642388,10.0878571 L135.4571,9.97835677 L131.376952,12.2247853 C131.186809,12.3298192 130.952916,12.3298192 130.762155,12.2247865 L126.682005,9.97835677 L126.496717,10.0878571 L126.496717,14.5714286 L126.621717,14.6964286 L135.517388,14.6964286 Z" id="Fill-123" fill="#FFFFFF" fill-rule="nonzero"></path>
            <path d="M172,40 C172,46.075 167.075,51 161,51 C154.925,51 150,46.075 150,40 C150,33.925 154.925,29 161,29 C167.075,29 172,33.925 172,40 Z" id="Stroke-239-Copy-6" stroke="#A7A9AC" stroke-width="2" stroke-linecap="round" stroke-linejoin="round"></path>
            <g id="Stroke-351">
                <use fill="#A7A9AC" fill-rule="evenodd" xlink:href="#path-1"></use>
                <path stroke="#A7A9AC" stroke-width="2" d="M160,36.9206556 L160,42.8793444 L164.256206,39.9 L160,36.9206556 Z"></path>
            </g>
        </g>
    </g>
</svg>